<svg xmlns="http://www.w3.org/2000/svg" version="1.1" xmlns:xlink="http://www.w3.org/1999/xlink" xmlns:svgjs="http://svgjs.dev/svgjs" width="2000" height="2000" viewBox="0 0 2000 2000"><g transform="matrix(1,0,0,1,-0.28443113772425477,-0.28443113772459583)"><svg viewBox="0 0 334 334" data-background-color="#ee3e38" preserveAspectRatio="xMidYMid meet" height="2000" width="2000" xmlns="http://www.w3.org/2000/svg" xmlns:xlink="http://www.w3.org/1999/xlink"><g id="tight-bounds" transform="matrix(1,0,0,1,0.04749999999998522,0.04750000000001364)"><svg viewBox="0 0 333.90454557049503 333.90454557049503" height="333.90454557049503" width="333.90454557049503"><g><svg></svg></g><g><svg viewBox="0 0 333.90454557049503 333.90454557049503" height="333.90454557049503" width="333.90454557049503"><g><path d="M0 166.952c0-92.205 74.747-166.952 166.952-166.952 92.205 0 166.952 74.747 166.953 166.952 0 92.205-74.747 166.952-166.953 166.953-92.205 0-166.952-74.747-166.952-166.953zM166.952 324.035c86.754 0 157.083-70.328 157.083-157.083 0-86.754-70.328-157.083-157.083-157.082-86.754 0-157.083 70.328-157.082 157.082 0 86.754 70.328 157.083 157.082 157.083z" data-fill-palette-color="tertiary" fill="#000000" stroke="transparent"></path><ellipse rx="160.27418187383762" ry="160.27418187383762" cx="166.95227278524752" cy="166.95227278524752" fill="#000000" stroke="transparent" stroke-width="0" fill-opacity="1" data-fill-palette-color="tertiary"></ellipse></g><g transform="matrix(1,0,0,1,82.79060720230716,71.17305217166896)"><svg viewBox="0 0 168.32333116588072 191.55844122715712" height="191.55844122715712" width="168.32333116588072"><g><svg viewBox="0 0 168.32333116588072 191.55844122715712" height="191.55844122715712" width="168.32333116588072"><g><svg viewBox="0 0 213.1584412271571 242.58252526885317" height="191.55844122715712" width="168.32333116588072"><g><svg viewBox="0 0 213.1584412271571 242.58252526885317" height="242.58252526885317" width="213.1584412271571"><g id="textblocktransform"><svg viewBox="0 0 213.1584412271571 242.58252526885317" height="242.58252526885317" width="213.1584412271571" id="textblock"><g><svg viewBox="0 0 213.1584412271571 177.40104341401891" height="177.40104341401891" width="213.1584412271571"><g transform="matrix(1,0,0,1,0,0)"><svg width="213.1584412271571" viewBox="-0.9500000476837158 -29 39.45000076293945 33" height="177.40104341401891" data-palette-color="#ee3e38"><path d="M34.5-0.4L34.5-0.4 34.5 0 22.9 0Q22.7-2.75 22.05-5.9L22.05-5.9Q18.55-2.4 15.05 0L15.05 0 3.4 0Q3.05-2.05 3.05-5.43 3.05-8.8 4.05-12.2L4.05-12.2Q7.65-13.25 10.98-15.75 14.3-18.25 15.8-21.15L15.8-21.15Q14.4-23.35 12.95-25L12.95-25 29.55-25Q34.5-14.15 34.5-0.4ZM21.15-9.55L21.15-9.55Q19.9-13.85 17.75-17.95L17.75-17.95Q15.4-11.05 15.05-4.9L15.05-4.9Q18.75-6.9 21.15-9.55Z" opacity="1" transform="matrix(1,0,0,1,0,0)" fill="#ffffff" class="undefined-text-0" data-fill-palette-color="quaternary" id="text-0"></path></svg></g></svg></g><g transform="matrix(1,0,0,1,3.5,210.11989398043136)"><svg viewBox="0 0 206.1584412271571 32.462631288421804" height="32.462631288421804" width="206.1584412271571"><g transform="matrix(1,0,0,1,0,0)"><svg width="206.1584412271571" viewBox="-6.490000009536743 -55.369998931884766 498.1499938964844 79.29000091552734" height="32.462631288421804" data-palette-color="#ee3e38"><path d="M42.53-31.4L42.68-31.4Q42.48-30.76 42.04-30.22L42.04-30.22 41.21-29.2Q40.82-28.71 40.55-28.15 40.28-27.59 40.38-26.86L40.38-26.86Q40.28-26.86 40.14-26.88 39.99-26.9 39.89-26.9L39.89-26.9Q39.11-26.9 38.7-26.54 38.28-26.17 37.6-25.93L37.6-25.93Q37.5-26.22 37.35-26.49 37.21-26.76 36.91-26.86L36.91-26.86Q35.74-26.61 34.57-26.49 33.4-26.37 32.23-26.17L32.23-26.17Q31.69-26.07 31.15-25.9 30.62-25.73 30.03-25.59L30.03-25.59Q29.74-25.49 29.39-25.51 29.05-25.54 28.71-25.49L28.71-25.49Q27.54-25.44 26.17-25.32 24.8-25.2 23.73-24.56L23.73-24.56Q23.24-24.66 22.71-24.71 22.17-24.76 21.63-24.76L21.63-24.76Q20.46-24.76 19.07-24.54 17.68-24.32 16.6-23.68L16.6-23.68Q16.36-23.78 16.09-23.83 15.82-23.88 15.48-23.88L15.48-23.88Q15.38-23.88 15.33-23.85 15.28-23.83 15.19-23.83L15.19-23.83Q15.14-23.39 15.31-22.97 15.48-22.56 15.92-22.31L15.92-22.31Q15.72-21.78 15.72-21.14L15.72-21.14Q15.72-20.31 15.84-19.48 15.97-18.65 15.97-17.82L15.97-17.82Q15.97-16.89 15.72-16.36L15.72-16.36Q16.21-14.89 16.21-13.23L16.21-13.23Q16.21-12.65 16.14-12.08 16.06-11.52 16.06-10.89L16.06-10.89Q16.06-10.35 16.46-10.03 16.85-9.72 16.85-9.18L16.85-9.18Q16.85-8.98 16.75-8.79L16.75-8.79Q17.43-8.94 18.07-9.2 18.7-9.47 19.38-9.47L19.38-9.47Q19.78-9.47 20.14-9.33 20.51-9.18 20.8-8.94L20.8-8.94Q20.75-8.69 20.73-8.4 20.7-8.11 20.7-7.81L20.7-7.81Q20.7-7.28 20.73-6.81 20.75-6.35 20.8-5.81L20.8-5.81Q20.41-5.13 19.9-4.59 19.38-4.05 19.19-3.22L19.19-3.22Q18.46-3.22 17.9-2.91 17.33-2.59 16.85-2.22 16.36-1.86 15.87-1.54 15.38-1.22 14.79-1.22L14.79-1.22Q14.06-1.22 13.77-1.44 13.48-1.66 13.33-1.9 13.18-2.15 13.06-2.34 12.94-2.54 12.55-2.49L12.55-2.49Q12.45-3.13 12.16-3.69 11.87-4.25 11.55-4.79 11.23-5.32 10.91-5.88 10.6-6.45 10.45-7.03L10.45-7.03Q10.16-8.3 10.21-9.67 10.25-11.04 9.77-12.3L9.77-12.3Q9.86-12.99 9.91-13.7 9.96-14.4 9.96-15.09L9.96-15.09Q9.96-16.46 9.89-17.8 9.81-19.14 9.77-20.56L9.77-20.56Q9.42-21 9.35-21.56 9.28-22.12 9.23-22.66L9.23-22.66Q9.08-22.8 8.91-22.95 8.74-23.1 8.69-23.34L8.69-23.34Q8.3-23.44 8.11-23.44L8.11-23.44Q7.42-23.44 6.96-23.12 6.49-22.8 6.1-22.8L6.1-22.8Q5.71-22.8 5.37-22.9 5.03-23 4.69-23L4.69-23Q4.39-23 4.37-22.88 4.35-22.75 4.15-22.66L4.15-22.66Q4-22.56 3.47-22.46 2.93-22.36 2.27-22.29 1.61-22.22 1-22.17 0.39-22.12 0.2-22.12L0.2-22.12Q-0.59-22.12-1-22.44-1.42-22.75-2-23.14L-2-23.14Q-1.9-23.44-1.9-23.54L-1.9-23.54Q-1.9-24.02-2.2-24.34-2.49-24.66-2.49-24.9L-2.49-24.9Q-2.49-25.44-2.08-25.73-1.66-26.03-1.61-26.66L-1.61-26.66Q-0.49-27.15 0.68-27.39 1.86-27.64 3.08-27.78 4.3-27.93 5.49-28.13 6.69-28.32 7.86-28.76L7.86-28.76Q8.2-28.71 8.52-28.69 8.84-28.66 9.18-28.66L9.18-28.66Q10.64-28.66 12.08-28.98 13.53-29.3 15.04-29.3L15.04-29.3Q15.43-29.3 15.82-29.25 16.21-29.2 16.6-29.1L16.6-29.1Q18.55-29.39 20.48-29.74 22.41-30.08 24.46-30.32L24.46-30.32Q25.44-30.42 26.39-30.49 27.34-30.57 28.32-30.71L28.32-30.71Q28.66-30.76 28.83-30.88 29-31.01 29-31.4L29-31.4Q29.44-31.2 29.98-31.2L29.98-31.2Q30.81-31.2 31.59-31.49 32.37-31.79 33.2-31.79L33.2-31.79Q33.4-31.79 33.54-31.76 33.69-31.74 33.84-31.74L33.84-31.74Q34.18-31.74 34.2-32.06 34.23-32.37 34.67-32.47L34.67-32.47Q35.01-32.57 35.64-32.62 36.28-32.67 36.99-32.74 37.7-32.81 38.31-32.93 38.92-33.06 39.21-33.3L39.21-33.3 39.55-33.84Q40.43-33.79 40.84-33.08 41.26-32.37 41.31-31.54L41.31-31.54Q41.5-31.35 41.87-31.37 42.24-31.4 42.53-31.4L42.53-31.4ZM66.31-22.8L66.31-22.8Q66.11-22.31 65.92-21.88 65.72-21.44 65.62-20.9L65.62-20.9Q65.28-20.65 64.87-20.53 64.45-20.41 64.01-20.29 63.57-20.17 63.21-20 62.84-19.82 62.64-19.48L62.64-19.48Q62.5-18.75 62.5-18.12L62.5-18.12Q62.5-17.29 62.79-16.7L62.79-16.7Q62.64-16.26 62.6-15.77 62.55-15.28 62.55-14.84L62.55-14.84Q62.55-13.23 62.94-11.65 63.33-10.06 63.38-8.45L63.38-8.45Q63.38-8.2 63.33-7.91 63.28-7.62 63.28-7.37L63.28-7.37Q63.28-6.35 64.06-6.01L64.06-6.01Q63.91-5.76 63.91-5.57L63.91-5.57Q63.91-5.18 64.01-4.88 64.11-4.59 64.06-4.25L64.06-4.25Q64.3-3.76 64.55-3.39 64.79-3.03 64.89-2.49L64.89-2.49Q64.55-1.81 64.06-1.25 63.57-0.68 63.38 0.15L63.38 0.15Q63.18 0.1 62.94 0.1L62.94 0.1Q62.6 0.1 62.4 0.24 62.2 0.39 62.08 0.61 61.96 0.83 61.81 1.05 61.67 1.27 61.42 1.37L61.42 1.37 61.28 1.37Q61.03 1.42 60.86 1.34 60.69 1.27 60.54 1.27L60.54 1.27Q60.45 1.27 60.15 1.37L60.15 1.37Q59.76 0.88 59.62 0.22 59.47-0.44 59.47-1.07L59.47-1.07Q59.47-1.76 59.67-2.29L59.67-2.29Q59.13-2.73 59.01-3.61 58.88-4.49 58.74-5.08L58.74-5.08Q58.35-6.88 57.83-8.59 57.32-10.3 57.22-12.11L57.22-12.11Q57.18-12.79 57.18-13.43L57.18-13.43 57.18-15.97Q57.18-16.6 57.22-17.19L57.22-17.19Q57.22-17.63 57.3-18.04 57.37-18.46 57.37-18.9L57.37-18.9Q57.37-19.48 56.98-20.02L56.98-20.02Q53.51-19.87 50.41-18.77 47.31-17.68 44.24-16.16L44.24-16.16Q44.04-15.04 43.99-13.96 43.94-12.89 43.94-11.77L43.94-11.77 43.94-9.62Q43.94-8.4 44.04-7.57L44.04-7.57Q44.28-6.15 45.48-5.4 46.68-4.64 47.9-4.25L47.9-4.25Q47.85-3.52 47.6-3 47.36-2.49 46.99-2.08 46.63-1.66 46.19-1.27 45.75-0.88 45.31-0.39L45.31-0.39Q44.92-0.63 44.53-0.73 44.14-0.83 43.7-0.85 43.26-0.88 42.82-0.93 42.38-0.98 41.94-1.12L41.94-1.12 40.87-2.59Q40.33-3.32 39.69-4.05L39.69-4.05 39.69-4.49Q39.69-5.81 39.21-7.03 38.72-8.25 38.47-9.52L38.47-9.52Q38.62-9.96 38.67-10.4 38.72-10.84 38.72-11.33L38.72-11.33Q38.72-12.3 38.64-13.23 38.57-14.16 38.67-15.09L38.67-15.09 38.43-15.09Q37.99-15.09 37.5-14.87 37.01-14.65 36.55-14.38 36.08-14.11 35.67-13.89 35.25-13.67 34.96-13.67L34.96-13.67Q34.81-13.67 34.67-13.72 34.52-13.77 34.32-13.77L34.32-13.77Q34.08-13.77 33.74-13.57 33.4-13.38 32.98-13.16 32.57-12.94 32.13-12.74 31.69-12.55 31.25-12.55L31.25-12.55Q30.56-12.55 29.88-13.13L29.88-13.13Q29.78-13.53 29.81-13.87 29.83-14.21 29.83-14.6L29.83-14.6Q29.83-14.99 29.69-15.43L29.69-15.43Q30.03-16.06 30.59-16.43 31.15-16.8 31.76-17.11 32.37-17.43 33.01-17.75 33.64-18.07 34.08-18.6L34.08-18.6 34.37-18.6Q35.06-18.6 35.62-18.9 36.18-19.19 36.91-19.14L36.91-19.14Q37.16-19.24 37.25-19.87L37.25-19.87 37.45-19.82Q38.52-19.82 39.35-20.56L39.35-20.56Q39.89-23.58 40.23-26.66 40.57-29.74 40.57-32.81L40.57-32.81Q40.57-33.11 40.38-33.4L40.38-33.4Q40.28-33.79 40.28-34.13L40.28-34.13 40.28-34.86Q40.28-35.4 40.33-35.99 40.38-36.57 40.57-37.16L40.57-37.16Q41.06-37.45 41.6-37.45L41.6-37.45Q42.23-37.45 42.84-37.28 43.45-37.11 44.04-37.01L44.04-37.01Q44.48-36.57 44.7-36.04 44.92-35.5 44.97-34.94 45.02-34.38 44.99-33.81 44.97-33.25 44.97-32.71L44.97-32.71Q44.97-31.64 45.21-30.62 45.46-29.59 45.46-28.61L45.46-28.61Q45.46-28.37 45.29-28.25 45.11-28.13 45.11-27.59L45.11-27.59Q45.11-27.05 45.21-26.46 45.31-25.88 45.31-25.29L45.31-25.29Q45.31-24.61 45.11-23.88 44.92-23.14 44.77-22.46L44.77-22.46Q47.7-22.71 50.78-23.19 53.85-23.68 56.64-24.76L56.64-24.76Q56.69-24.85 56.69-25.05L56.69-25.05Q56.69-25.34 56.64-25.63 56.59-25.93 56.59-26.27L56.59-26.27Q56.59-26.86 56.98-27.2L56.98-27.2Q56.74-28.56 56.64-29.93 56.54-31.3 56.54-32.67L56.54-32.67 56.54-35.45Q56.54-36.82 56.49-38.18L56.49-38.18Q56.88-38.43 57.32-38.43L57.32-38.43Q57.86-38.43 58.32-38.16 58.79-37.89 59.42-37.89L59.42-37.89Q59.86-37.89 60.15-38.04L60.15-38.04Q60.69-37.55 60.89-36.77 61.08-35.99 61.23-35.16 61.37-34.33 61.55-33.52 61.72-32.71 62.25-32.23L62.25-32.23 62.3-32.08Q62.3-31.88 62.11-31.79 61.91-31.69 61.91-31.4L61.91-31.4 61.91-31.2Q62.11-30.42 62.2-29.59 62.3-28.76 62.38-27.91 62.45-27.05 62.6-26.25 62.74-25.44 63.13-24.76L63.13-24.76Q63.38-24.8 63.77-24.8L63.77-24.8Q64.74-24.8 65.31-24.15 65.87-23.49 66.31-22.8ZM100.34-31.05L100.34-31.05 100.34-30.86Q100-30.76 100-30.37L100-30.37Q99.46-30.13 98.87-30 98.29-29.88 97.75-29.64L97.75-29.64Q97.21-29.69 96.65-29.71 96.09-29.74 95.55-29.74L95.55-29.74Q94.09-29.74 92.62-29.64 91.16-29.54 89.69-29.64L89.69-29.64Q89.01-29.25 88.2-29.03 87.4-28.81 86.66-28.81L86.66-28.81Q86.08-28.81 85.64-28.96L85.64-28.96Q84.47-28.37 83.08-27.98 81.68-27.59 80.27-27.22 78.85-26.86 77.56-26.39 76.26-25.93 75.29-25.1L75.29-25.1Q75.19-24.41 75.14-23.75 75.09-23.1 75.09-22.46L75.09-22.46Q75.09-21.78 75.17-21.19 75.24-20.61 75.48-20.02L75.48-20.02Q75.73-19.92 76.04-19.87 76.36-19.82 76.61-19.82L76.61-19.82Q76.85-19.82 77.09-19.9 77.34-19.97 77.44-20.21L77.44-20.21Q78.17-20.31 78.9-20.29 79.63-20.26 80.37-20.26L80.37-20.26Q81.1-20.26 81.81-20.31 82.51-20.36 83.2-20.56L83.2-20.56Q83.98-20.75 84.74-20.8 85.49-20.85 86.23-20.9 86.96-20.95 87.74-21.07 88.52-21.19 89.35-21.58L89.35-21.58Q89.99-21.34 90.64-21.34 91.3-21.34 91.94-21.24L91.94-21.24Q92.28-21 92.5-20.7 92.72-20.41 92.72-20.02L92.72-20.02Q92.72-19.34 92.23-18.65 91.74-17.97 91.45-17.38L91.45-17.38 90.91-17.38Q89.74-17.38 88.64-17.07 87.54-16.75 86.45-16.33 85.35-15.92 84.25-15.6 83.15-15.28 81.98-15.28L81.98-15.28Q81.78-15.28 81.76-15.06 81.73-14.84 81.64-14.75L81.64-14.75Q81.39-14.79 80.9-14.79L80.9-14.79Q79.78-14.79 78.75-14.55 77.73-14.31 76.66-14.31L76.66-14.31Q76.36-14.31 76.07-14.33 75.78-14.36 75.48-14.4L75.48-14.4Q75.24-14.01 74.85-13.89 74.46-13.77 74.12-13.48L74.12-13.48Q73.97-13.04 73.95-12.4 73.92-11.77 73.9-11.11 73.87-10.45 73.77-9.86 73.68-9.28 73.38-8.94L73.38-8.94Q73.43-8.69 73.77-8.76 74.12-8.84 74.12-8.45L74.12-8.45Q74.12-8.01 74.02-7.52 73.92-7.03 73.92-6.54L73.92-6.54Q73.92-5.62 74.14-4.52 74.36-3.42 74.82-2.49 75.29-1.56 76.07-0.95 76.85-0.34 78.02-0.34L78.02-0.34Q78.8-0.34 79.49-0.63 80.17-0.93 80.61-1.61L80.61-1.61 80.85-1.66Q81.05-1.66 81.22-1.61 81.39-1.56 81.59-1.56L81.59-1.56Q81.88-1.56 82.34-1.93 82.81-2.29 83.37-2.78 83.93-3.27 84.52-3.74 85.1-4.2 85.64-4.39L85.64-4.39Q85.98-5.08 86.3-5.76 86.62-6.45 87.25-6.84L87.25-6.84 87.25-8.25Q87.74-8.79 88.3-9.23 88.86-9.67 89.16-10.35L89.16-10.35Q89.4-10.25 89.62-10.21 89.84-10.16 90.08-10.16L90.08-10.16Q90.33-10.16 90.6-10.21 90.86-10.25 91.11-10.35L91.11-10.35Q91.5-9.81 91.72-9.16 91.94-8.5 92.28-7.91L92.28-7.91Q91.84-7.03 91.25-5.81 90.67-4.59 89.99-3.37 89.3-2.15 88.54-1.05 87.79 0.05 87.06 0.63L87.06 0.63Q86.91 0.78 86.42 0.98L86.42 0.98Q85.88 1.37 85.44 1.73 85 2.1 84.61 2.59L84.61 2.59Q83.2 3.03 81.9 3.76 80.61 4.49 79.34 5.18L79.34 5.18Q78.75 5.03 78.07 5.03L78.07 5.03Q77.49 5.03 76.9 5.1 76.31 5.18 75.63 5.18L75.63 5.18Q75.43 4.93 75.07 4.86 74.7 4.79 74.8 4.35L74.8 4.35Q73.14 4.25 72.11 3.44 71.09 2.64 70.38 1.46 69.67 0.29 69.23-1.07 68.79-2.44 68.31-3.71L68.31-3.71 68.31-3.86Q68.31-4.1 68.5-4.15 68.7-4.2 68.7-4.44L68.7-4.44Q68.7-4.54 68.65-4.59L68.65-4.59Q68.5-5.13 68.4-5.52 68.31-5.91 68.31-6.45L68.31-6.45Q68.31-7.23 68.4-7.98 68.5-8.74 68.5-9.52L68.5-9.52Q68.5-10.3 68.31-10.89L68.31-10.89Q68.5-11.13 68.62-11.55 68.75-11.96 68.79-12.4 68.84-12.84 68.87-13.28 68.89-13.72 68.99-14.06L68.99-14.06Q68.79-14.6 68.65-15.01 68.5-15.43 68.5-16.02L68.5-16.02 68.5-16.36Q68.99-17.19 69.33-18.07 69.67-18.95 70.06-19.87L70.06-19.87 70.06-20.02Q70.06-21.44 69.97-22.85 69.87-24.27 69.87-25.68L69.87-25.68 69.87-26.61Q69.87-27.1 69.92-27.54L69.92-27.54Q70.31-27.73 70.5-28.08 70.7-28.42 71.09-28.61L71.09-28.61 72.7-28.61 72.99-29.1Q73.14-29.35 73.19-29.64L73.19-29.64Q73.73-29.79 74.24-30.05 74.75-30.32 75.19-30.62L75.19-30.62Q75.87-31.01 76.44-31.32 77-31.64 77.56-31.86 78.12-32.08 78.75-32.23 79.39-32.37 80.22-32.47L80.22-32.47Q80.61-32.47 80.73-32.62 80.85-32.76 81.1-32.96L81.1-32.96Q81.68-32.86 82.27-32.79 82.86-32.71 83.44-32.71L83.44-32.71Q84.61-32.71 85.64-33.15L85.64-33.15Q87.1-33.15 88.54-33.2 89.99-33.25 91.45-33.25L91.45-33.25Q92.72-33.25 93.99-33.15 95.26-33.06 96.48-32.81L96.48-32.81Q96.92-32.96 97.46-32.96L97.46-32.96Q98.04-32.96 98.65-32.84 99.26-32.71 99.85-32.81L99.85-32.81Q99.9-32.28 100.12-31.91 100.34-31.54 100.34-31.05ZM157.75 11.62L157.75 11.62Q157.61 12.45 157.09 12.82 156.58 13.18 156.14 13.87L156.14 13.87 155.95 13.87Q155.46 13.87 154.99 13.96 154.53 14.06 154.04 14.21L154.04 14.21Q153.8 14.11 153.46 14.06 153.12 14.01 153.02 13.72L153.02 13.72Q152.63 13.92 151.94 13.92L151.94 13.92Q150.82 13.92 149.82 13.28 148.82 12.65 147.74 12.3L147.74 12.3Q147.45 11.72 147.04 11.25 146.62 10.79 146.21 10.35 145.79 9.91 145.4 9.42 145.01 8.94 144.77 8.25L144.77 8.25Q144.67 7.96 144.52 7.91 144.37 7.86 144.08 7.91L144.08 7.91Q144.13 7.37 143.96 6.98 143.79 6.59 143.2 6.49L143.2 6.49Q143.2 5.86 143.01 5.42 142.81 4.98 142.54 4.66 142.28 4.35 141.96 4 141.64 3.66 141.45 3.17L141.45 3.17Q141.01 3.08 140.59 3.05 140.18 3.03 139.69 3.03L139.69 3.03Q137.34 3.03 135.15 3.91L135.15 3.91Q134.9 4 134.63 4.15 134.37 4.3 134.12 4.39L134.12 4.39Q134.02 4.39 133.95 4.42 133.88 4.44 133.78 4.44L133.78 4.44Q133.44 4.44 133.14 4.32 132.85 4.2 132.51 4.2L132.51 4.2Q132.36 4.2 132.19 4.27 132.02 4.35 131.87 4.39L131.87 4.39Q131.14 4.64 130.51 4.69L130.51 4.69Q128.51 5.08 126.28 5.27 124.06 5.47 122.21 6.3L122.21 6.3Q121.82 6.49 121.72 6.91 121.62 7.32 121.67 7.71L121.67 7.71Q121.13 8.11 120.86 8.74 120.6 9.38 120.38 10.08 120.16 10.79 119.91 11.47 119.67 12.16 119.23 12.65L119.23 12.65Q119.37 12.94 119.37 13.28L119.37 13.28Q119.37 14.01 118.89 14.75 118.4 15.48 118.15 16.16L118.15 16.16Q117.91 16.85 117.76 17.5 117.62 18.16 117.32 18.7 117.03 19.24 116.52 19.58 116.01 19.92 115.08 19.92L115.08 19.92Q114.2 19.92 113.56 19.58 112.93 19.24 112.54 18.7 112.15 18.16 111.9 17.43 111.66 16.7 111.51 15.97L111.51 15.97Q112.05 14.89 112.54 14.11 113.03 13.33 113.27 12.11L113.27 12.11Q114.15 11.47 114.57 10.57 114.98 9.67 115.03 8.59L115.03 8.59Q115.57 8.25 115.79 7.69 116.01 7.13 116.05 6.49L116.05 6.49Q114.88 6.4 113.59 6.3 112.29 6.2 111.17 5.81L111.17 5.81Q111.17 5.71 111.2 5.62 111.22 5.52 111.22 5.42L111.22 5.42Q111.22 4.79 110.93 4.27 110.63 3.76 110.63 3.17L110.63 3.17 110.63 2.78Q111.03 2.39 111.34 1.98 111.66 1.56 112 1.22 112.34 0.88 112.78 0.66 113.22 0.44 113.91 0.44L113.91 0.44Q114.83 0.44 115.71 0.56 116.59 0.68 117.52 0.68L117.52 0.68Q118.15 0.68 118.84 0.54L118.84 0.54Q119.91-1.66 120.74-3.93 121.57-6.2 122.01-8.54L122.01-8.54Q122.35-9.03 122.65-9.69 122.94-10.35 123.11-11.08 123.28-11.82 123.35-12.52 123.43-13.23 123.43-13.82L123.43-13.82Q123.96-14.45 124.18-15.38 124.4-16.31 124.55-17.31 124.7-18.31 124.87-19.29 125.04-20.26 125.53-21L125.53-21 125.53-21.44Q125.58-22.17 125.38-22.75L125.38-22.75Q125.62-22.85 125.67-23.19 125.72-23.54 125.87-23.78L125.87-23.78Q125.92-26.03 126.36-28.2 126.8-30.37 127.09-32.57L127.09-32.57 127.09-32.71Q127.09-32.96 126.92-32.98 126.75-33.01 126.75-33.25L126.75-33.25Q126.75-33.69 126.87-34.42 126.99-35.16 127.04-35.64L127.04-35.64Q127.33-38.28 127.33-40.87L127.33-40.87Q127.33-43.07 127.19-45.21 127.04-47.36 126.89-49.56L126.89-49.56 127.28-50.15Q127.48-50.44 127.63-50.73L127.63-50.73Q128.12-50.93 128.43-51.15 128.75-51.37 129.29-51.37L129.29-51.37Q129.43-51.37 129.53-51.34 129.63-51.32 129.73-51.32L129.73-51.32Q130.02-51.12 130.19-50.78 130.36-50.44 130.53-50.15 130.7-49.85 131-49.66 131.29-49.46 131.83-49.56L131.83-49.56Q132.07-48.19 133.19-48.14L133.19-48.14Q133.44-47.46 133.8-46.78 134.17-46.09 134.8-45.7L134.8-45.7Q134.76-45.51 134.76-45.17L134.76-45.17Q134.76-44.48 135.07-43.85 135.39-43.21 135.88-42.68L135.88-42.68 135.88-42.58Q135.88-42.04 135.49-41.85L135.49-41.85Q135.93-41.36 136.12-40.67 136.32-39.99 136.46-39.28 136.61-38.57 136.83-37.94 137.05-37.3 137.59-36.96L137.59-36.96 137.59-36.82Q137.59-36.57 137.42-36.52 137.25-36.47 137.25-36.23L137.25-36.23Q138.12-34.62 138.47-32.71 138.81-30.81 139.35-29.05L139.35-29.05Q139.54-28.86 139.81-28.81 140.08-28.76 140.22-28.56L140.22-28.56Q139.93-28.37 139.93-27.88 139.93-27.39 139.69-27.15L139.69-27.15Q140.08-26.81 140.05-26.15 140.03-25.49 140.42-25.2L140.42-25.2 140.42-25Q140.42-24.8 140.32-24.68 140.22-24.56 140.22-24.37L140.22-24.37 140.22-24.17Q140.62-22.46 140.83-20.75 141.05-19.04 141.3-17.33 141.54-15.63 141.84-13.94 142.13-12.26 142.67-10.64L142.67-10.64Q142.71-10.6 142.71-10.5L142.71-10.5Q142.71-10.25 142.52-10.23 142.32-10.21 142.32-9.96L142.32-9.96Q142.32-9.72 142.49-9.4 142.67-9.08 142.86-8.89L142.86-8.89Q142.81-8.69 142.81-8.3L142.81-8.3Q142.81-7.57 143.08-6.88 143.35-6.2 143.67-5.54 143.98-4.88 144.23-4.15 144.47-3.42 144.42-2.59L144.42-2.59Q144.72-2.15 145.18-1.86 145.64-1.56 146.13-1.32 146.62-1.07 147.04-0.73 147.45-0.39 147.6 0.2L147.6 0.2Q147.21 0.54 147.06 1.05 146.91 1.56 146.52 1.95L146.52 1.95Q146.87 2.78 147.33 3.49 147.79 4.2 148.28 4.88L148.28 4.88 149.31 6.25Q149.84 6.93 150.23 7.71L150.23 7.71Q150.77 7.71 151.02 8.01 151.26 8.3 151.8 8.25L151.8 8.25Q151.99 8.64 151.94 9.13L151.94 9.13Q152.92 8.79 153.9 8.79L153.9 8.79Q154.43 8.79 154.9 8.84 155.36 8.89 155.85 8.89L155.85 8.89Q156.44 8.89 156.87 8.74L156.87 8.74Q157.07 9.03 157.17 9.4 157.27 9.77 157.31 10.16L157.31 10.16 157.46 10.94Q157.56 11.33 157.75 11.62ZM139.35-1.9L139.35-1.9Q138.66-5.27 137.95-8.62 137.25-11.96 136.71-15.38L136.71-15.38Q136.42-17.19 136.27-18.99 136.12-20.8 135.9-22.58 135.68-24.37 135.32-26.12 134.95-27.88 134.27-29.59L134.27-29.59 134.27-29.69Q134.27-29.83 134.37-29.93 134.46-30.03 134.46-30.27L134.46-30.27 134.46-30.47Q133.83-30.91 133.58-31.71 133.34-32.52 133.17-33.42 133-34.33 132.73-35.18 132.46-36.04 131.83-36.62L131.83-36.62Q131.58-33.79 131.31-30.98 131.04-28.17 130.95-25.34L130.95-25.34Q130.46-25.05 130.31-24.37 130.17-23.68 130.17-23.14L130.17-23.14Q130.17-22.75 130.21-22.34 130.26-21.92 130.41-21.48L130.41-21.48Q129.53-19.29 129.14-16.97 128.75-14.65 128.26-12.35L128.26-12.35Q128.21-12.21 128.09-11.69 127.97-11.18 127.82-10.64 127.68-10.11 127.58-9.69 127.48-9.28 127.48-9.23L127.48-9.23Q127.43-8.89 127.46-8.54 127.48-8.2 127.48-7.86L127.48-7.86 126.75-7.13Q126.55-5.27 126.04-3.54 125.53-1.81 124.99 0L124.99 0Q125.33 0.05 125.65 0.07 125.97 0.1 126.31 0.1L126.31 0.1Q127.87 0.1 129.46-0.12 131.04-0.34 132.61-0.54L132.61-0.54Q133.14-0.63 133.73-0.71 134.32-0.78 134.85-0.78L134.85-0.78Q135.1-0.83 135.44-0.81 135.78-0.78 136.03-0.83L136.03-0.83Q136.42-0.93 136.54-1.15 136.66-1.37 137.05-1.42L137.05-1.42Q137.34-1.27 137.73-1.27L137.73-1.27Q138.17-1.27 138.56-1.46 138.95-1.66 139.35-1.9ZM183.43-24.07L183.43-24.07Q183.43-23.58 183.09-23.44 182.75-23.29 182.75-22.85L182.75-22.85Q182.75-22.71 182.85-22.61 182.95-22.51 182.95-22.31L182.95-22.31 182.95-22.12Q182.36-19.29 181.26-17.19 180.16-15.09 178.7-13.33 177.23-11.57 175.4-10.01 173.57-8.45 171.47-6.74L171.47-6.74Q170.89-6.25 170.28-5.76 169.67-5.27 169.13-4.74L169.13-4.74 168.05-3.71Q168.01-3.66 167.52-3.49 167.03-3.32 166.93-3.27L166.93-3.27Q166.25-2.98 165.49-2.59 164.73-2.2 164.2-1.61L164.2-1.61Q163.22-1.61 162.54-1.32 161.85-1.03 161.02-0.54L161.02-0.54Q160.78-0.54 160.61-0.63 160.44-0.73 160.24-0.83 160.05-0.93 159.83-0.95 159.61-0.98 159.26-0.88L159.26-0.88Q158.68-1.86 158-2.54 157.31-3.22 156.14-3.37L156.14-3.37Q155.99-4.2 155.46-4.66 154.92-5.13 154.38-5.66L154.38-5.66Q154.28-5.96 154.24-6.35 154.19-6.74 154.04-7.08 153.89-7.42 153.65-7.67 153.41-7.91 152.97-7.91L152.97-7.91Q152.92-8.2 153.21-8.2 153.5-8.2 153.5-8.45L153.5-8.45Q153.5-8.74 153.41-9.03 153.31-9.33 153.31-9.67L153.31-9.67Q153.31-9.91 153.36-10.11 153.41-10.3 153.5-10.55L153.5-10.55Q153.36-11.87 153.36-13.23L153.36-13.23Q153.36-15.87 153.72-18.43 154.09-21 154.09-23.63L154.09-23.63Q154.09-24.8 153.97-25.98 153.84-27.15 153.5-28.27L153.5-28.27Q152.38-28.03 151.26-27.71 150.13-27.39 149.16-26.86L149.16-26.86Q148.62-27.2 148.01-27.27 147.4-27.34 146.81-27.54L146.81-27.54Q146.47-28.22 146.47-28.96L146.47-28.96Q146.47-29.64 146.72-30.27L146.72-30.27 147.2-31.54Q148.38-31.79 149.52-32.28 150.67-32.76 151.84-33.15L151.84-33.15Q152.23-33.25 152.84-33.4 153.45-33.54 153.7-33.64L153.7-33.64Q154.04-33.79 154.16-34.2 154.28-34.62 154.53-34.91L154.53-34.91 155.36-34.91Q155.65-34.91 155.99-34.89 156.34-34.86 156.63-34.72L156.63-34.72Q158.39-35.16 160.14-35.28 161.9-35.4 163.76-35.64L163.76-35.64Q163.95-35.64 164.34-35.69L164.34-35.69 165.17-35.84Q165.61-35.94 165.98-36.01 166.34-36.08 166.49-36.08L166.49-36.08Q166.64-36.08 166.64-35.94L166.64-35.94 167.47-35.94Q169.57-35.94 171.57-35.4L171.57-35.4 175.57-34.33Q176.4-33.64 177.23-33.01 178.06-32.37 179.09-31.88L179.09-31.88Q179.33-31.1 179.85-30.64 180.36-30.18 180.99-29.64L180.99-29.64Q181.24-29 181.65-28.3 182.07-27.59 182.46-26.86 182.85-26.12 183.14-25.42 183.43-24.71 183.43-24.07ZM178.89-23.34L178.89-23.34Q178.36-24.46 177.87-25.68 177.38-26.9 176.65-27.88L176.65-27.88Q175.77-28.13 174.87-28.49 173.96-28.86 173.62-29.79L173.62-29.79Q173.52-29.74 173.28-29.74L173.28-29.74Q172.84-29.74 172.5-30.08 172.16-30.42 171.72-30.52L171.72-30.52Q171.33-30.57 170.67-30.66 170.01-30.76 169.27-30.81 168.54-30.86 167.83-30.91 167.13-30.96 166.74-30.96L166.74-30.96Q166.34-30.96 165.93-30.93 165.51-30.91 165.08-30.86L165.08-30.86Q164.68-30.86 164.59-30.74 164.49-30.62 164.2-30.52L164.2-30.52Q163.95-30.62 163.66-30.62L163.66-30.62 163.07-30.62Q162.05-30.62 161.05-30.3 160.05-29.98 159.07-29.44L159.07-29.44 159.07-29.25Q159.07-28.86 159.41-28.81 159.75-28.76 159.8-28.42L159.8-28.42Q159.56-28.42 159.41-28.39 159.26-28.37 159.26-28.03L159.26-28.03Q159.26-27.54 159.39-26.95 159.51-26.37 159.51-25.78L159.51-25.78Q159.51-25.34 159.41-24.76 159.31-24.17 158.92-23.83L158.92-23.83Q159.41-23.39 159.41-22.66L159.41-22.66Q159.41-22.17 159.22-21.63 159.02-21.09 158.73-20.7L158.73-20.7Q158.63-18.65 158.34-16.55 158.04-14.45 158.04-12.4L158.04-12.4Q158.04-11.38 158.17-10.4 158.29-9.42 158.58-8.45L158.58-8.45Q159.12-7.91 159.73-7.62 160.34-7.32 161.02-7.03L161.02-7.03 161.02-6.88Q161.02-6.74 160.83-6.59 160.63-6.45 160.63-6.2L160.63-6.2Q160.63-6.01 160.83-6.01L160.83-6.01Q162.88-6.59 164.68-7.42 166.49-8.25 168.05-9.67L168.05-9.67Q168.2-9.81 168.35-9.81L168.35-9.81Q168.44-9.81 168.62-9.77 168.79-9.72 168.93-9.67L168.93-9.67 168.88-9.86Q168.88-10.16 169.05-10.4 169.23-10.64 169.47-10.84L169.47-10.84 169.96-11.28Q170.2-11.52 170.35-11.77L170.35-11.77Q170.74-11.87 170.91-12.16 171.08-12.45 171.52-12.45L171.52-12.45Q171.62-12.99 172.06-13.26 172.5-13.53 172.59-14.06L172.59-14.06Q173.57-14.6 174.33-15.38 175.09-16.16 175.74-17.04 176.4-17.92 176.99-18.87 177.58-19.82 178.21-20.7L178.21-20.7 178.21-20.9Q178.21-21.68 178.48-22.17 178.75-22.66 178.89-23.34ZM248.03-8.5L248.03-8.5Q247.93-7.76 247.52-7.37 247.1-6.98 246.57-6.64L246.57-6.64Q246.32-6.69 246.1-6.71 245.88-6.74 245.64-6.74L245.64-6.74Q244.13-6.79 242.78-6.35 241.44-5.91 240.02-5.71L240.02-5.71Q239.54-5.62 239.12-5.64 238.71-5.66 238.27-5.57L238.27-5.57Q236.7-5.32 234.95-5.18 233.19-5.03 231.43-4.81 229.67-4.59 227.99-4.27 226.3-3.96 224.84-3.37L224.84-3.37Q224.69-3.47 224.55-3.59 224.4-3.71 224.2-3.71L224.2-3.71Q223.72-3.71 223.28-3.56 222.84-3.42 222.4-3.47L222.4-3.47Q221.91-3.17 221.35-3.05 220.79-2.93 220.22-2.86 219.66-2.78 219.13-2.64 218.59-2.49 218.1-2.1L218.1-2.1Q217.71-2.29 217.15-2.32 216.59-2.34 216.39-2.69L216.39-2.69Q215.27-2.15 214.02-2 212.78-1.86 211.51-1.9L211.51-1.9Q210.68-1.95 209.6-2.15 208.53-2.34 207.46-2.71 206.38-3.08 205.45-3.59 204.53-4.1 204.04-4.83L204.04-4.83Q203.7-5.32 203.55-5.91 203.4-6.49 202.87-6.79L202.87-6.79Q203.01-7.91 203.21-8.98 203.4-10.06 203.6-11.18L203.6-11.18Q204.57-12.01 205.45-12.94 206.33-13.87 207.11-14.89L207.11-14.89Q208.04-15.33 208.85-15.97 209.65-16.6 210.46-17.26 211.26-17.92 212.07-18.55 212.88-19.19 213.8-19.68L213.8-19.68Q213.95-20.02 214.22-20.24 214.49-20.46 214.78-20.68 215.07-20.9 215.32-21.17 215.56-21.44 215.66-21.83L215.66-21.83Q217.37-22.85 218.64-24.41 219.91-25.98 220.3-27.93L220.3-27.93Q219.47-28.61 218.42-28.83 217.37-29.05 216.24-29.15L216.24-29.15Q215.27-29.2 214.22-29.15 213.17-29.1 212.09-29.2L212.09-29.2Q211.02-28.86 209.87-28.76 208.73-28.66 207.6-28.59 206.48-28.52 205.38-28.3 204.28-28.08 203.26-27.49L203.26-27.49Q203.06-27.49 202.89-27.54 202.72-27.59 202.52-27.59L202.52-27.59Q200.96-27.64 199.59-26.98 198.23-26.32 196.91-25.68L196.91-25.68Q196.81-25.49 196.81-25.39L196.81-25.39Q196.81-25.1 196.93-24.83 197.06-24.56 197.06-24.27L197.06-24.27Q197.01-24.22 197.01-24.17 197.01-24.12 196.96-24.07L196.96-24.07Q196.91-23.83 196.84-23.63 196.76-23.44 196.66-23.19L196.66-23.19Q196.13-21.63 196.08-20.12L196.08-20.12Q196.03-18.85 196.08-17.63 196.13-16.41 196.08-15.14L196.08-15.14Q195.98-13.57 195.59-12.21L195.59-12.21Q195.83-11.04 196.03-9.74 196.23-8.45 196.52-7.18 196.81-5.91 197.23-4.71 197.64-3.52 198.32-2.44L198.32-2.44Q198.28-2.34 198.37-2.29 198.47-2.25 198.57-2.25L198.57-2.25 198.96-2.25Q199.2-2.25 199.15-2.05L199.15-2.05Q199.25-1.9 199.3-1.78 199.35-1.66 199.5-1.56L199.5-1.56Q199.59-1.42 199.5-1.17L199.5-1.17Q199.45-0.2 199.01 0.63 198.57 1.46 198.47 2.44L198.47 2.44Q197.89 2.59 197.4 2.59L197.4 2.59Q196.57 2.54 195.93 2.12 195.3 1.71 194.76 1.12 194.22 0.54 193.74-0.07 193.25-0.68 192.66-1.12L192.66-1.12Q192.32-2.49 192-4.15 191.68-5.81 190.95-6.98L190.95-6.98Q191.15-7.42 191.15-8.06L191.15-8.06Q191.2-9.03 190.98-9.99 190.76-10.94 190.85-11.91L190.85-11.91Q190.85-12.45 190.98-12.99 191.1-13.53 191.15-14.06L191.15-14.06Q191.2-14.89 190.98-15.67 190.76-16.46 190.81-17.29L190.81-17.29Q190.85-17.68 190.98-18.04 191.1-18.41 191.34-18.7L191.34-18.7Q191.1-19.29 191.2-19.82L191.2-19.82Q191.24-20.65 191.39-21.39 191.54-22.12 191.59-22.85L191.59-22.85Q191.59-23.24 191.54-23.61 191.49-23.97 191.39-24.32L191.39-24.32 190.95-24.46Q190.66-24.46 190.39-24.32 190.12-24.17 189.93-23.97 189.73-23.78 189.58-23.66 189.44-23.54 189.29-23.54L189.29-23.54Q189.19-23.54 189.07-23.56 188.95-23.58 188.85-23.58L188.85-23.58Q188.75-23.58 188.49-23.39 188.22-23.19 187.85-22.97 187.49-22.75 187.14-22.53 186.8-22.31 186.61-22.27L186.61-22.27Q186.07-22.36 185.75-22.63 185.43-22.9 185.17-23.17 184.9-23.44 184.6-23.66 184.31-23.88 183.87-23.83L183.87-23.83Q183.73-24.12 183.7-24.46 183.68-24.8 183.73-25.15L183.73-25.15 183.73-25.93Q184.07-26.56 184.63-26.98 185.19-27.39 185.82-27.69L185.82-27.69 187.09-28.27Q187.73-28.56 188.27-29L188.27-29 188.71-29Q189.58-28.96 190.24-29.35 190.9-29.74 191.49-30.25 192.07-30.76 192.69-31.3 193.3-31.84 194.03-32.13L194.03-32.13Q194.57-31.88 195.15-31.71 195.74-31.54 196.37-31.49L196.37-31.49Q197.01-31.49 197.69-31.69 198.37-31.88 198.76-32.42L198.76-32.42Q199.01-32.32 199.18-32.3 199.35-32.28 199.59-32.28L199.59-32.28Q200.33-32.23 201.06-32.5 201.79-32.76 202.48-33.15L202.48-33.15Q203.45-33.11 204.4-33.28 205.36-33.45 206.31-33.64 207.26-33.84 208.21-34.01 209.16-34.18 210.14-34.13L210.14-34.13Q211.75-34.08 213.32-34.42 214.88-34.77 216.49-34.67L216.49-34.67Q217.61-34.62 218.71-34.5 219.81-34.38 220.93-34.42L220.93-34.42Q221.57-34.13 222.08-33.91 222.59-33.69 223.37-33.79L223.37-33.79Q224.94-32.47 226.21-30.71L226.21-30.71 226.21-29.88Q226.16-28.76 225.82-27.69 225.47-26.61 225.01-25.56 224.55-24.51 224.01-23.51 223.47-22.51 222.98-21.53L222.98-21.53Q219.81-18.65 216.64-15.82 213.46-12.99 210.09-10.35L210.09-10.35Q209.99-9.86 209.82-9.47 209.65-9.08 209.6-8.64L209.6-8.64Q209.6-8.4 209.65-8.25L209.65-8.25Q209.99-8.15 210.26-7.89 210.53-7.62 210.43-7.18L210.43-7.18 210.87-7.18Q211.12-7.18 211.12-6.98L211.12-6.98 211.9-6.93Q213.75-6.84 215.61-7.03 217.47-7.23 219.35-7.47 221.23-7.71 223.08-7.93 224.94-8.15 226.79-8.2L226.79-8.2Q227.23-8.35 227.72-8.45 228.21-8.54 228.6-8.84L228.6-8.84 228.74-8.84Q229.09-8.84 229.26-8.64 229.43-8.45 229.77-8.4L229.77-8.4Q230.01-8.4 230.28-8.5 230.55-8.59 230.84-8.64L230.84-8.64Q231.53-8.84 232.28-8.89 233.04-8.94 233.77-9.03L233.77-9.03Q236.61-9.28 239.39-9.35 242.17-9.42 244.96-10.06L244.96-10.06Q245.2-9.72 245.64-9.59 246.08-9.47 246.57-9.35 247.06-9.23 247.47-9.08 247.89-8.94 248.03-8.5ZM244.71-6.69L244.71-6.69Q244.46-6.3 244.12-5.98 243.78-5.66 243.49-5.32L243.49-5.32Q243.15-5.18 242.73-5.18 242.32-5.18 241.95-5.2 241.58-5.22 241.27-5.2 240.95-5.18 240.75-4.98L240.75-4.98Q240.36-5.08 240.17-5.35 239.97-5.62 239.48-5.66L239.48-5.66Q239.29-5.71 239.09-5.66L239.09-5.66Q238.36-6.49 237.75-7.42 237.14-8.35 236.6-9.18L236.6-9.18Q236.55-10.99 236.31-12.84L236.31-12.84Q236.26-13.28 236.16-13.72 236.07-14.16 236.02-14.55L236.02-14.55Q236.02-15.04 236.09-15.5 236.16-15.97 236.21-16.36L236.21-16.36Q236.41-17.77 236.65-19.14 236.9-20.51 237.09-21.92L237.09-21.92Q237.29-23.19 237.29-24.58 237.29-25.98 236.85-27.2L236.85-27.2 236.8-27.44Q236.9-27.83 237.02-28.1 237.14-28.37 237.19-28.71L237.19-28.71Q237.29-29.25 236.95-29.49L236.95-29.49Q237.09-29.88 237.43-30 237.78-30.13 237.82-30.57L237.82-30.57Q237.87-30.76 237.82-30.96L237.82-30.96Q238.21-31.1 238.63-31.23 239.05-31.35 239.44-31.25L239.44-31.25Q240.07-31.15 240.56-30.83 241.05-30.52 241.49-30.13L241.49-30.13Q242.27-27.78 242.12-25.17 241.97-22.56 241.63-19.92 241.29-17.29 241.19-14.77 241.1-12.26 241.97-10.11L241.97-10.11 242.07-10.06Q242.32-10.01 242.46-10.23 242.61-10.45 242.85-10.4L242.85-10.4Q243.05-10.3 243.1-10.3L243.1-10.3Q243.29-9.33 243.73-8.45 244.17-7.57 244.71-6.69ZM285.67-3.56L285.67-3.56Q285.53-2.88 285.06-2.47 284.6-2.05 283.96-1.81 283.33-1.56 282.67-1.49 282.01-1.42 281.47-1.42L281.47-1.42Q281.23-1.42 281.01-1.44 280.79-1.46 280.55-1.46L280.55-1.46Q280.3-1.46 280.3-1.22 280.3-0.98 280.06-0.88L280.06-0.88Q279.81-0.98 279.57-1.03 279.33-1.07 279.08-1.07L279.08-1.07Q278.74-1.07 278.42-1.03 278.11-0.98 277.81-0.98L277.81-0.98Q277.42-0.98 277.25-1.07 277.08-1.17 276.96-1.29 276.84-1.42 276.71-1.56 276.59-1.71 276.35-1.81L276.35-1.81Q276.01-1.95 275.79-1.86 275.57-1.76 275.13-2.15L275.13-2.15Q274.54-2.64 274.13-3.34 273.71-4.05 273.32-4.83 272.93-5.62 272.49-6.4 272.05-7.18 271.46-7.76L271.46-7.76 271.07-7.76Q270.19-7.76 269.85-7.03L269.85-7.03Q269.61-7.18 269.36-7.4 269.12-7.62 268.83-7.76L268.83-7.76Q267.7-7.42 266.48-7.18 265.26-6.93 264.04-6.93L264.04-6.93 263.36-6.93Q263.07-6.93 262.72-7.03L262.72-7.03Q262.24-6.84 261.85-6.57 261.45-6.3 260.97-6.3L260.97-6.3Q260.67-6.3 260.28-6.49L260.28-6.49Q259.99-6.49 260.01-6.25 260.04-6.01 259.7-6.01L259.7-6.01 259.26-6.01Q258.57-6.01 257.91-5.96 257.26-5.91 256.57-5.91L256.57-5.91Q255.64-5.91 254.67-6.15L254.67-6.15Q254.42-6.01 254.13-6.01L254.13-6.01Q253.94-5.91 253.84-5.69 253.74-5.47 253.64-5.3 253.54-5.13 253.37-5 253.2-4.88 252.91-4.93L252.91-4.93Q252.81-4.35 252.42-4 252.03-3.66 252.03-2.98L252.03-2.98Q251.49-2.69 251.15-2.25 250.81-1.81 250.47-1.32 250.13-0.83 249.76-0.39 249.39 0.05 248.86 0.29L248.86 0.29Q248.61 0.59 248.71 1.22L248.71 1.22Q248.17 1.66 247.39 2 246.61 2.34 245.93 2.34L245.93 2.34Q244.51 2.34 243.97 0.83L243.97 0.83Q243.97 0.34 244.05-0.22 244.12-0.78 244.27-1.29 244.41-1.81 244.71-2.22 245-2.64 245.54-2.83L245.54-2.83Q245.54-3.27 245.24-3.44 244.95-3.61 245-4.05L245-4.05Q246.32-4.69 247.29-5.71 248.27-6.74 249.08-7.89 249.88-9.03 250.71-10.21 251.54-11.38 252.57-12.3L252.57-12.3 252.57-13.33Q254.03-14.89 254.47-16.85L254.47-16.85Q255.01-16.94 255.18-17.33 255.35-17.72 255.35-18.26L255.35-18.26Q255.6-18.26 255.67-18.48 255.74-18.7 256.08-18.6L256.08-18.6Q256.52-19.78 257.06-20.75 257.6-21.73 258.13-22.73 258.67-23.73 259.09-24.8 259.5-25.88 259.7-27.2L259.7-27.2Q260.38-27.25 260.45-27.86 260.53-28.47 260.62-28.96L260.62-28.96Q261.36-29.64 261.72-30.57 262.09-31.49 262.38-32.5 262.68-33.5 263.04-34.5 263.41-35.5 264.09-36.28L264.09-36.28 264.09-36.43Q264.09-36.67 263.9-36.74 263.7-36.82 263.7-37.06L263.7-37.06Q263.75-37.11 263.75-37.16L263.75-37.16Q264.34-37.4 264.63-37.96 264.92-38.53 265.51-38.77L265.51-38.77Q266.53-37.94 267.31-37.77 268.1-37.6 269.36-37.5L269.36-37.5Q270-36.82 270.07-35.86 270.15-34.91 270.39-33.98L270.39-33.98Q270.78-32.42 271.24-30.93 271.71-29.44 271.95-27.88L271.95-27.88Q272.1-26.95 272.49-26.12 272.88-25.29 273.03-24.41L273.03-24.41Q273.12-23.73 273.03-22.88 272.93-22.02 273.22-21.39L273.22-21.39 273.56-20.61Q273.81-20.07 273.98-19.48 274.15-18.9 274.3-18.31L274.3-18.31Q274.69-16.85 275-15.16 275.32-13.48 276.01-12.11L276.01-12.11Q276.25-11.62 276.76-11.43 277.27-11.23 277.91-11.16 278.54-11.08 279.15-11.11 279.77-11.13 280.2-11.13L280.2-11.13 280.69-11.13Q280.99-11.13 281.28-11.04L281.28-11.04Q281.47-10.64 281.47-10.35L281.47-10.35Q281.47-9.77 281.08-9.42 280.69-9.08 280.69-8.64L280.69-8.64Q280.69-8.4 280.89-8.11L280.89-8.11Q280.69-8.15 280.3-8.15L280.3-8.15Q279.18-8.15 278.11-7.76L278.11-7.76Q278.5-6.93 279.15-6.37 279.81-5.81 280.55-5.32L280.55-5.32Q281.03-5.71 281.57-5.71L281.57-5.71Q282.16-5.71 282.67-5.44 283.18-5.18 283.77-5.18L283.77-5.18Q284.21-5.18 284.4-5.32L284.4-5.32Q284.79-4.88 285.04-4.42 285.28-3.96 285.67-3.56ZM270.39-11.38L270.39-11.38Q270.29-12.21 270.07-12.57 269.85-12.94 269.71-13.48L269.71-13.48Q269.51-14.16 269.44-14.94 269.36-15.72 269.22-16.46L269.22-16.46Q268.88-18.12 268.46-19.78 268.05-21.44 267.41-23L267.41-23Q267.61-23.29 267.61-23.54L267.61-23.54 267.61-23.68Q267.17-24.17 266.97-24.88 266.78-25.59 266.61-26.29 266.44-27 266.17-27.61 265.9-28.22 265.31-28.61L265.31-28.61Q265.17-28.32 265.17-27.93L265.17-27.93Q265.17-27.59 265.24-27.29 265.31-27 265.31-26.66L265.31-26.66Q264.82-26.42 264.6-25.9 264.38-25.39 263.9-25.1L263.9-25.1Q263.51-23.54 262.77-22.14 262.04-20.75 261.23-19.38 260.43-18.02 259.7-16.63 258.96-15.23 258.52-13.72L258.52-13.72Q257.89-13.28 257.67-12.6 257.45-11.91 257.45-11.23L257.45-11.23Q257.89-10.99 258.45-10.96 259.01-10.94 259.55-10.94 260.09-10.94 260.58-10.84 261.06-10.74 261.45-10.35L261.45-10.35Q262.09-10.55 262.85-10.62 263.6-10.69 264.09-11.04L264.09-11.04Q265.07-10.69 266.19-10.69L266.19-10.69Q266.78-10.69 267.34-10.79 267.9-10.89 268.44-11.04L268.44-11.04Q268.88-10.94 269.12-10.72 269.36-10.5 269.85-10.55L269.85-10.55Q270.1-10.74 270.15-10.96 270.19-11.18 270.39-11.38ZM317.41-32.08L317.41-32.08Q317.31-31.49 317.14-31.08 316.97-30.66 317.07-29.98L317.07-29.98Q316.58-29.93 316.31-29.66 316.04-29.39 315.87-29.05 315.7-28.71 315.53-28.34 315.36-27.98 315.11-27.69L315.11-27.69Q315.5-25.93 315.55-24.12 315.6-22.31 315.8-20.56L315.8-20.56Q316.04-18.31 316.55-16.14 317.07-13.96 317.07-11.72L317.07-11.72Q317.07-11.04 317.04-10.45 317.02-9.86 317.02-9.23L317.02-9.23Q317.02-8.84 317.04-8.42 317.07-8.01 317.07-7.62L317.07-7.62Q317.07-6.2 316.7-4.79 316.33-3.37 316.14-1.95L316.14-1.95Q315.55-1.42 315.14-0.78 314.72-0.15 314.28 0.39 313.84 0.93 313.26 1.34 312.67 1.76 311.79 1.9L311.79 1.9Q311.65 2.39 311.23 2.64 310.82 2.88 310.52 3.32L310.52 3.32 310.43 3.32Q309.21 3.32 308.33 2.98 307.45 2.64 306.69 2.2 305.93 1.76 305.15 1.27 304.37 0.78 303.35 0.49L303.35 0.49Q301.98-0.63 300.86-1.98 299.73-3.32 298.32-4.39L298.32-4.39Q297.98-5.37 297.41-6.01 296.85-6.64 296.32-7.47L296.32-7.47Q296.07-7.81 295.95-8.11 295.83-8.4 295.63-8.79L295.63-8.79Q295.49-9.18 295.17-9.33 294.85-9.47 294.61-9.67L294.61-9.67Q294.22-11.18 293.48-12.45 292.75-13.72 291.77-14.89L291.77-14.89Q291.48-14.36 291.31-13.75 291.14-13.13 290.99-12.52 290.85-11.91 290.63-11.3 290.41-10.69 290.07-10.21L290.07-10.21 290.07-10.06Q290.07-9.81 290.26-9.77 290.46-9.72 290.46-9.47L290.46-9.47Q290.46-9.42 290.43-9.38 290.41-9.33 290.41-9.28L290.41-9.28Q290.16-9.08 290.04-8.79 289.92-8.5 289.53-8.45L289.53-8.45Q289.58-8.2 289.58-7.96L289.58-7.96 289.58-7.52Q289.58-6.1 289.26-4.69 288.94-3.27 288.94-1.81L288.94-1.81 288.94-1.17Q288.94-0.83 288.99-0.54L288.99-0.54Q289.09-0.24 289.28 0.05 289.48 0.34 289.48 0.59L289.48 0.59Q289.48 0.93 289.19 1.22L289.19 1.22Q289.53 1.46 289.97 1.76 290.41 2.05 290.77 2.42 291.14 2.78 291.38 3.2 291.63 3.61 291.63 4.1L291.63 4.1Q291.63 4.93 291.09 5.27 290.55 5.62 289.8 5.81 289.04 6.01 288.23 6.18 287.43 6.35 286.89 6.79L286.89 6.79 286.75 6.79Q286.16 6.79 285.87 6.45 285.57 6.1 284.99 6.1L284.99 6.1Q284.06 4.59 283.72 2.71 283.38 0.83 283.38-0.88L283.38-0.88Q283.38-2.98 283.74-5.08 284.11-7.18 284.62-9.23 285.13-11.28 285.74-13.31 286.35-15.33 286.89-17.38L286.89-17.38 286.94-17.53Q286.94-17.77 286.82-17.87 286.7-17.97 286.7-18.16L286.7-18.16Q286.7-18.26 286.75-18.26L286.75-18.26Q286.89-18.75 287.06-19.19 287.23-19.63 287.33-20.17L287.33-20.17Q287.62-21.53 287.75-22.97 287.87-24.41 287.89-25.83 287.92-27.25 287.99-28.69 288.06-30.13 288.31-31.54L288.31-31.54Q288.7-31.93 289.04-32.37 289.38-32.81 289.92-33.15L289.92-33.15Q290.9-33.11 291.87-32.86 292.85-32.62 293.73-32.08L293.73-32.08Q294.31-29.98 294.53-27.88 294.75-25.78 295.29-23.68L295.29-23.68 295.29-23.54Q295.29-23.29 295.56-23.32 295.83-23.34 295.97-23.14L295.97-23.14Q295.88-23 295.85-22.8 295.83-22.61 295.83-22.41L295.83-22.41 295.83-21.58Q295.92-21.19 296.07-20.75 296.22-20.31 296.71-20.21L296.71-20.21Q296.95-18.65 297.44-17.33 297.93-16.02 298.56-14.79 299.2-13.57 299.93-12.38 300.66-11.18 301.44-9.86L301.44-9.86Q302.66-8.94 303.54-7.74 304.42-6.54 305.32-5.44 306.23-4.35 307.37-3.52 308.52-2.69 310.38-2.49L310.38-2.49Q310.62-2.69 310.72-3.03L310.72-3.03 310.96-3.71Q311.11-4.05 311.28-4.32 311.45-4.59 311.79-4.74L311.79-4.74Q311.89-6.1 312.01-7.52 312.14-8.94 312.62-10.21L312.62-10.21Q312.38-10.64 312.38-11.28L312.38-11.28Q312.38-11.77 312.45-12.21 312.53-12.65 312.53-13.09L312.53-13.09Q312.53-14.01 312.14-14.6L312.14-14.6Q312.14-14.94 312.18-15.31 312.23-15.67 312.48-16.02L312.48-16.02Q312.09-16.99 311.87-18.07 311.65-19.14 311.65-20.26L311.65-20.26Q311.65-20.9 311.79-21.58L311.79-21.58Q311.5-22.31 311.4-23.29L311.4-23.29 311.21-25.29Q311.11-26.32 310.92-27.2 310.72-28.08 310.18-28.61L310.18-28.61Q310.48-29.05 310.48-29.64L310.48-29.64Q310.48-30.62 310.18-31.49 309.89-32.37 309.89-33.35L309.89-33.35Q309.89-34.03 310.18-34.72L310.18-34.72Q311.26-34.67 312.31-34.5 313.36-34.33 314.38-34.33L314.38-34.33Q314.67-33.94 315.07-33.69 315.46-33.45 315.9-33.23 316.33-33.01 316.75-32.76 317.17-32.52 317.41-32.08ZM358.62-3.56L358.62-3.56Q358.47-2.88 358.01-2.47 357.54-2.05 356.91-1.81 356.27-1.56 355.61-1.49 354.96-1.42 354.42-1.42L354.42-1.42Q354.17-1.42 353.95-1.44 353.73-1.46 353.49-1.46L353.49-1.46Q353.25-1.46 353.25-1.22 353.25-0.98 353-0.88L353-0.88Q352.76-0.98 352.51-1.03 352.27-1.07 352.03-1.07L352.03-1.07Q351.68-1.07 351.37-1.03 351.05-0.98 350.76-0.98L350.76-0.98Q350.37-0.98 350.19-1.07 350.02-1.17 349.9-1.29 349.78-1.42 349.66-1.56 349.54-1.71 349.29-1.81L349.29-1.81Q348.95-1.95 348.73-1.86 348.51-1.76 348.07-2.15L348.07-2.15Q347.48-2.64 347.07-3.34 346.65-4.05 346.26-4.83 345.87-5.62 345.43-6.4 344.99-7.18 344.41-7.76L344.41-7.76 344.02-7.76Q343.14-7.76 342.8-7.03L342.8-7.03Q342.55-7.18 342.31-7.4 342.06-7.62 341.77-7.76L341.77-7.76Q340.65-7.42 339.43-7.18 338.21-6.93 336.99-6.93L336.99-6.93 336.3-6.93Q336.01-6.93 335.67-7.03L335.67-7.03Q335.18-6.84 334.79-6.57 334.4-6.3 333.91-6.3L333.91-6.3Q333.62-6.3 333.23-6.49L333.23-6.49Q332.93-6.49 332.96-6.25 332.98-6.01 332.64-6.01L332.64-6.01 332.2-6.01Q331.52-6.01 330.86-5.96 330.2-5.91 329.52-5.91L329.52-5.91Q328.59-5.91 327.61-6.15L327.61-6.15Q327.37-6.01 327.07-6.01L327.07-6.01Q326.88-5.91 326.78-5.69 326.68-5.47 326.59-5.3 326.49-5.13 326.32-5 326.15-4.88 325.85-4.93L325.85-4.93Q325.76-4.35 325.37-4 324.98-3.66 324.98-2.98L324.98-2.98Q324.44-2.69 324.1-2.25 323.75-1.81 323.41-1.32 323.07-0.83 322.7-0.39 322.34 0.05 321.8 0.29L321.8 0.29Q321.56 0.59 321.65 1.22L321.65 1.22Q321.12 1.66 320.34 2 319.56 2.34 318.87 2.34L318.87 2.34Q317.46 2.34 316.92 0.83L316.92 0.83Q316.92 0.34 316.99-0.22 317.06-0.78 317.21-1.29 317.36-1.81 317.65-2.22 317.94-2.64 318.48-2.83L318.48-2.83Q318.48-3.27 318.19-3.44 317.89-3.61 317.94-4.05L317.94-4.05Q319.26-4.69 320.24-5.71 321.22-6.74 322.02-7.89 322.83-9.03 323.66-10.21 324.49-11.38 325.51-12.3L325.51-12.3 325.51-13.33Q326.98-14.89 327.42-16.85L327.42-16.85Q327.95-16.94 328.12-17.33 328.3-17.72 328.3-18.26L328.3-18.26Q328.54-18.26 328.61-18.48 328.69-18.7 329.03-18.6L329.03-18.6Q329.47-19.78 330-20.75 330.54-21.73 331.08-22.73 331.62-23.73 332.03-24.8 332.45-25.88 332.64-27.2L332.64-27.2Q333.32-27.25 333.4-27.86 333.47-28.47 333.57-28.96L333.57-28.96Q334.3-29.64 334.67-30.57 335.03-31.49 335.33-32.5 335.62-33.5 335.99-34.5 336.35-35.5 337.04-36.28L337.04-36.28 337.04-36.43Q337.04-36.67 336.84-36.74 336.64-36.82 336.64-37.06L336.64-37.06Q336.69-37.11 336.69-37.16L336.69-37.16Q337.28-37.4 337.57-37.96 337.87-38.53 338.45-38.77L338.45-38.77Q339.48-37.94 340.26-37.77 341.04-37.6 342.31-37.5L342.31-37.5Q342.94-36.82 343.02-35.86 343.09-34.91 343.33-33.98L343.33-33.98Q343.73-32.42 344.19-30.93 344.65-29.44 344.9-27.88L344.9-27.88Q345.04-26.95 345.43-26.12 345.82-25.29 345.97-24.41L345.97-24.41Q346.07-23.73 345.97-22.88 345.87-22.02 346.17-21.39L346.17-21.39 346.51-20.61Q346.75-20.07 346.92-19.48 347.09-18.9 347.24-18.31L347.24-18.31Q347.63-16.85 347.95-15.16 348.27-13.48 348.95-12.11L348.95-12.11Q349.19-11.62 349.71-11.43 350.22-11.23 350.85-11.16 351.49-11.08 352.1-11.11 352.71-11.13 353.15-11.13L353.15-11.13 353.64-11.13Q353.93-11.13 354.22-11.04L354.22-11.04Q354.42-10.64 354.42-10.35L354.42-10.35Q354.42-9.77 354.03-9.42 353.64-9.08 353.64-8.64L353.64-8.64Q353.64-8.4 353.83-8.11L353.83-8.11Q353.64-8.15 353.25-8.15L353.25-8.15Q352.12-8.15 351.05-7.76L351.05-7.76Q351.44-6.93 352.1-6.37 352.76-5.81 353.49-5.32L353.49-5.32Q353.98-5.71 354.52-5.71L354.52-5.71Q355.1-5.71 355.61-5.44 356.13-5.18 356.71-5.18L356.71-5.18Q357.15-5.18 357.35-5.32L357.35-5.32Q357.74-4.88 357.98-4.42 358.23-3.96 358.62-3.56ZM343.33-11.38L343.33-11.38Q343.24-12.21 343.02-12.57 342.8-12.94 342.65-13.48L342.65-13.48Q342.46-14.16 342.38-14.94 342.31-15.72 342.16-16.46L342.16-16.46Q341.82-18.12 341.41-19.78 340.99-21.44 340.36-23L340.36-23Q340.55-23.29 340.55-23.54L340.55-23.54 340.55-23.68Q340.11-24.17 339.92-24.88 339.72-25.59 339.55-26.29 339.38-27 339.11-27.61 338.84-28.22 338.26-28.61L338.26-28.61Q338.11-28.32 338.11-27.93L338.11-27.93Q338.11-27.59 338.18-27.29 338.26-27 338.26-26.66L338.26-26.66Q337.77-26.42 337.55-25.9 337.33-25.39 336.84-25.1L336.84-25.1Q336.45-23.54 335.72-22.14 334.98-20.75 334.18-19.38 333.37-18.02 332.64-16.63 331.91-15.23 331.47-13.72L331.47-13.72Q330.83-13.28 330.61-12.6 330.39-11.91 330.39-11.23L330.39-11.23Q330.83-10.99 331.4-10.96 331.96-10.94 332.49-10.94 333.03-10.94 333.52-10.84 334.01-10.74 334.4-10.35L334.4-10.35Q335.03-10.55 335.79-10.62 336.55-10.69 337.04-11.04L337.04-11.04Q338.01-10.69 339.14-10.69L339.14-10.69Q339.72-10.69 340.28-10.79 340.84-10.89 341.38-11.04L341.38-11.04Q341.82-10.94 342.06-10.72 342.31-10.5 342.8-10.55L342.8-10.55Q343.04-10.74 343.09-10.96 343.14-11.18 343.33-11.38ZM397.63-31.4L397.78-31.4Q397.58-30.76 397.14-30.22L397.14-30.22 396.31-29.2Q395.92-28.71 395.65-28.15 395.38-27.59 395.48-26.86L395.48-26.86Q395.38-26.86 395.24-26.88 395.09-26.9 394.99-26.9L394.99-26.9Q394.21-26.9 393.8-26.54 393.38-26.17 392.7-25.93L392.7-25.93Q392.6-26.22 392.45-26.49 392.31-26.76 392.01-26.86L392.01-26.86Q390.84-26.61 389.67-26.49 388.5-26.37 387.33-26.17L387.33-26.17Q386.79-26.07 386.25-25.9 385.71-25.73 385.13-25.59L385.13-25.59Q384.84-25.49 384.49-25.51 384.15-25.54 383.81-25.49L383.81-25.49Q382.64-25.44 381.27-25.32 379.9-25.2 378.83-24.56L378.83-24.56Q378.34-24.66 377.8-24.71 377.27-24.76 376.73-24.76L376.73-24.76Q375.56-24.76 374.17-24.54 372.78-24.32 371.7-23.68L371.7-23.68Q371.46-23.78 371.19-23.83 370.92-23.88 370.58-23.88L370.58-23.88Q370.48-23.88 370.43-23.85 370.38-23.83 370.29-23.83L370.29-23.83Q370.24-23.39 370.41-22.97 370.58-22.56 371.02-22.31L371.02-22.31Q370.82-21.78 370.82-21.14L370.82-21.14Q370.82-20.31 370.94-19.48 371.07-18.65 371.07-17.82L371.07-17.82Q371.07-16.89 370.82-16.36L370.82-16.36Q371.31-14.89 371.31-13.23L371.31-13.23Q371.31-12.65 371.24-12.08 371.16-11.52 371.16-10.89L371.16-10.89Q371.16-10.35 371.55-10.03 371.95-9.72 371.95-9.18L371.95-9.18Q371.95-8.98 371.85-8.79L371.85-8.79Q372.53-8.94 373.17-9.2 373.8-9.47 374.48-9.47L374.48-9.47Q374.87-9.47 375.24-9.33 375.61-9.18 375.9-8.94L375.9-8.94Q375.85-8.69 375.83-8.4 375.8-8.11 375.8-7.81L375.8-7.81Q375.8-7.28 375.83-6.81 375.85-6.35 375.9-5.81L375.9-5.81Q375.51-5.13 375-4.59 374.48-4.05 374.29-3.22L374.29-3.22Q373.56-3.22 372.99-2.91 372.43-2.59 371.95-2.22 371.46-1.86 370.97-1.54 370.48-1.22 369.89-1.22L369.89-1.22Q369.16-1.22 368.87-1.44 368.58-1.66 368.43-1.9 368.28-2.15 368.16-2.34 368.04-2.54 367.65-2.49L367.65-2.49Q367.55-3.13 367.26-3.69 366.96-4.25 366.65-4.79 366.33-5.32 366.01-5.88 365.7-6.45 365.55-7.03L365.55-7.03Q365.26-8.3 365.3-9.67 365.35-11.04 364.87-12.3L364.87-12.3Q364.96-12.99 365.01-13.7 365.06-14.4 365.06-15.09L365.06-15.09Q365.06-16.46 364.99-17.8 364.91-19.14 364.87-20.56L364.87-20.56Q364.52-21 364.45-21.56 364.38-22.12 364.33-22.66L364.33-22.66Q364.18-22.8 364.01-22.95 363.84-23.1 363.79-23.34L363.79-23.34Q363.4-23.44 363.2-23.44L363.2-23.44Q362.52-23.44 362.06-23.12 361.59-22.8 361.2-22.8L361.2-22.8Q360.81-22.8 360.47-22.9 360.13-23 359.79-23L359.79-23Q359.49-23 359.47-22.88 359.45-22.75 359.25-22.66L359.25-22.66Q359.1-22.56 358.57-22.46 358.03-22.36 357.37-22.29 356.71-22.22 356.1-22.17 355.49-22.12 355.29-22.12L355.29-22.12Q354.51-22.12 354.1-22.44 353.68-22.75 353.1-23.14L353.1-23.14Q353.2-23.44 353.2-23.54L353.2-23.54Q353.2-24.02 352.9-24.34 352.61-24.66 352.61-24.9L352.61-24.9Q352.61-25.44 353.02-25.73 353.44-26.03 353.49-26.66L353.49-26.66Q354.61-27.15 355.78-27.39 356.95-27.64 358.18-27.78 359.4-27.93 360.59-28.13 361.79-28.32 362.96-28.76L362.96-28.76Q363.3-28.71 363.62-28.69 363.94-28.66 364.28-28.66L364.28-28.66Q365.74-28.66 367.18-28.98 368.62-29.3 370.14-29.3L370.14-29.3Q370.53-29.3 370.92-29.25 371.31-29.2 371.7-29.1L371.7-29.1Q373.65-29.39 375.58-29.74 377.51-30.08 379.56-30.32L379.56-30.32Q380.54-30.42 381.49-30.49 382.44-30.57 383.42-30.71L383.42-30.71Q383.76-30.76 383.93-30.88 384.1-31.01 384.1-31.4L384.1-31.4Q384.54-31.2 385.08-31.2L385.08-31.2Q385.91-31.2 386.69-31.49 387.47-31.79 388.3-31.79L388.3-31.79Q388.5-31.79 388.64-31.76 388.79-31.74 388.94-31.74L388.94-31.74Q389.28-31.74 389.3-32.06 389.33-32.37 389.77-32.47L389.77-32.47Q390.11-32.57 390.74-32.62 391.38-32.67 392.09-32.74 392.79-32.81 393.41-32.93 394.02-33.06 394.31-33.3L394.31-33.3 394.65-33.84Q395.53-33.79 395.94-33.08 396.36-32.37 396.41-31.54L396.41-31.54Q396.6-31.35 396.97-31.37 397.34-31.4 397.63-31.4L397.63-31.4ZM421.85-28.27L421.85-28.27Q421.55-27.83 421.5-27.29 421.45-26.76 421.45-26.32L421.45-26.32Q421.45-25.73 421.48-25.17 421.5-24.61 421.5-24.07L421.5-24.07 421.5-23.34Q421.41-23 421.21-22.66 421.01-22.31 420.92-21.97L420.92-21.97Q420.23-20.17 420.23-18.36L420.23-18.36 420.23-18.26Q419.99-17.68 419.77-17.19 419.55-16.7 419.35-16.24 419.16-15.77 419.06-15.26 418.96-14.75 419.01-14.06L419.01-14.06Q418.33-12.35 417.21-10.96 416.08-9.57 415.01-8.11L415.01-8.11Q413.98-7.71 413.13-7.08 412.27-6.45 411.49-5.66L411.49-5.66Q409.98-5.18 408.51-4.54 407.05-3.91 405.88-2.83L405.88-2.83Q404.95-2.73 404.02-2.54 403.1-2.34 402.22-1.95L402.22-1.95 401.63-1.95Q401.19-1.95 401-2.15L401-2.15Q400.36-1.81 399.68-1.68 398.99-1.56 398.31-1.56L398.31-1.56Q397.43-1.56 396.58-1.68 395.72-1.81 394.84-1.95L394.84-1.95Q394.35-2.64 393.48-3 392.6-3.37 391.91-3.71L391.91-3.71Q390.5-5.66 389.86-7.5 389.23-9.33 388.54-11.62L388.54-11.62Q388.64-12.3 388.89-12.96 389.13-13.62 389.08-14.4L389.08-14.4Q389.96-16.94 391.4-19.02 392.84-21.09 394.7-23L394.7-23Q394.7-23.29 394.82-23.49 394.94-23.68 394.84-24.07L394.84-24.07Q394.89-24.02 395.04-24.02L395.04-24.02Q395.43-24.02 395.53-24.24 395.62-24.46 395.58-24.76L395.58-24.76Q397.33-25.88 398.77-27.34 400.21-28.81 402.07-29.79L402.07-29.79Q402.22-30.22 402.56-30.52 402.9-30.81 403.1-31.2L403.1-31.2Q404.66-31.64 405.93-32.52 407.2-33.4 408.61-34.08L408.61-34.08Q409.39-34.52 410.1-34.69 410.81-34.86 411.64-35.06L411.64-35.06Q411.93-35.16 412.18-35.21 412.42-35.25 412.71-35.25L412.71-35.25Q413.59-35.25 414.42-34.94 415.25-34.62 416.13-34.62L416.13-34.62Q416.38-34.62 416.55-34.64 416.72-34.67 416.91-34.72L416.91-34.72Q417.74-33.69 419.01-33.15L419.01-33.15Q419.31-32.42 419.72-31.88 420.14-31.35 420.58-30.83 421.01-30.32 421.38-29.71 421.75-29.1 421.85-28.27ZM416.96-25.73L416.96-25.73Q416.96-25.98 416.91-26.17L416.91-26.17Q416.43-26.32 415.99-26.56 415.55-26.81 415.01-26.81L415.01-26.81Q414.67-26.81 414.33-26.66L414.33-26.66Q414.28-27 414.06-27.15 413.84-27.29 413.57-27.42 413.3-27.54 413.03-27.61 412.76-27.69 412.57-27.88L412.57-27.88Q412.42-28.27 412.25-28.69 412.08-29.1 411.64-29.3L411.64-29.3Q411.2-28.86 410.61-28.59 410.03-28.32 409.42-28.08 408.81-27.83 408.25-27.49 407.68-27.15 407.29-26.66L407.29-26.66 406.42-26.66Q406.12-26.12 405.59-25.85 405.05-25.59 404.66-25.1L404.66-25.1Q403.88-24.71 403.22-24.15 402.56-23.58 401.92-22.97 401.29-22.36 400.68-21.73 400.07-21.09 399.38-20.56L399.38-20.56Q398.75-19.19 397.99-18.19 397.24-17.19 396.58-16.16 395.92-15.14 395.45-13.94 394.99-12.74 394.99-10.99L394.99-10.99 394.99-10.5Q394.99-10.25 395.04-10.01L395.04-10.01Q395.67-9.33 396.09-8.54 396.5-7.76 397.48-7.42L397.48-7.42Q398.46-7.03 399.55-7.08 400.65-7.13 401.68-6.84L401.68-6.84Q404.02-7.28 406.2-8.28 408.37-9.28 410.32-10.69L410.32-10.69Q410.61-10.94 411.01-11.21 411.4-11.47 411.64-11.77L411.64-11.77Q411.88-12.01 412.05-12.3 412.23-12.6 412.42-12.84L412.42-12.84Q412.81-13.48 413.3-14.11 413.79-14.75 414.33-15.28L414.33-15.28Q414.57-16.36 414.96-17.36 415.35-18.36 415.74-19.34 416.13-20.31 416.4-21.34 416.67-22.36 416.67-23.49L416.67-23.49Q416.67-23.73 416.64-24.02 416.62-24.32 416.57-24.56L416.57-24.56Q416.96-25.1 416.96-25.73ZM487.66-8.5L487.66-8.5Q487.57-7.76 487.15-7.37 486.74-6.98 486.2-6.64L486.2-6.64Q485.95-6.69 485.73-6.71 485.51-6.74 485.27-6.74L485.27-6.74Q483.76-6.79 482.41-6.35 481.07-5.91 479.66-5.71L479.66-5.71Q479.17-5.62 478.75-5.64 478.34-5.66 477.9-5.57L477.9-5.57Q476.33-5.32 474.58-5.18 472.82-5.03 471.06-4.81 469.3-4.59 467.62-4.27 465.93-3.96 464.47-3.37L464.47-3.37Q464.32-3.47 464.18-3.59 464.03-3.71 463.83-3.71L463.83-3.71Q463.35-3.71 462.91-3.56 462.47-3.42 462.03-3.47L462.03-3.47Q461.54-3.17 460.98-3.05 460.42-2.93 459.86-2.86 459.29-2.78 458.76-2.64 458.22-2.49 457.73-2.1L457.73-2.1Q457.34-2.29 456.78-2.32 456.22-2.34 456.02-2.69L456.02-2.69Q454.9-2.15 453.65-2 452.41-1.86 451.14-1.9L451.14-1.9Q450.31-1.95 449.24-2.15 448.16-2.34 447.09-2.71 446.01-3.08 445.08-3.59 444.16-4.1 443.67-4.83L443.67-4.83Q443.33-5.32 443.18-5.91 443.03-6.49 442.5-6.79L442.5-6.79Q442.64-7.91 442.84-8.98 443.03-10.06 443.23-11.18L443.23-11.18Q444.21-12.01 445.08-12.94 445.96-13.87 446.74-14.89L446.74-14.89Q447.67-15.33 448.48-15.97 449.28-16.6 450.09-17.26 450.9-17.92 451.7-18.55 452.51-19.19 453.43-19.68L453.43-19.68Q453.58-20.02 453.85-20.24 454.12-20.46 454.41-20.68 454.7-20.9 454.95-21.17 455.19-21.44 455.29-21.83L455.29-21.83Q457-22.85 458.27-24.41 459.54-25.98 459.93-27.93L459.93-27.93Q459.1-28.61 458.05-28.83 457-29.05 455.88-29.15L455.88-29.15Q454.9-29.2 453.85-29.15 452.8-29.1 451.73-29.2L451.73-29.2Q450.65-28.86 449.5-28.76 448.36-28.66 447.23-28.59 446.11-28.52 445.01-28.3 443.91-28.08 442.89-27.49L442.89-27.49Q442.69-27.49 442.52-27.54 442.35-27.59 442.16-27.59L442.16-27.59Q440.59-27.64 439.23-26.98 437.86-26.32 436.54-25.68L436.54-25.68Q436.44-25.49 436.44-25.39L436.44-25.39Q436.44-25.1 436.56-24.83 436.69-24.56 436.69-24.27L436.69-24.27Q436.64-24.22 436.64-24.17 436.64-24.12 436.59-24.07L436.59-24.07Q436.54-23.83 436.47-23.63 436.39-23.44 436.3-23.19L436.3-23.19Q435.76-21.63 435.71-20.12L435.71-20.12Q435.66-18.85 435.71-17.63 435.76-16.41 435.71-15.14L435.71-15.14Q435.61-13.57 435.22-12.21L435.22-12.21Q435.47-11.04 435.66-9.74 435.86-8.45 436.15-7.18 436.44-5.91 436.86-4.71 437.27-3.52 437.96-2.44L437.96-2.44Q437.91-2.34 438-2.29 438.1-2.25 438.2-2.25L438.2-2.25 438.59-2.25Q438.83-2.25 438.79-2.05L438.79-2.05Q438.88-1.9 438.93-1.78 438.98-1.66 439.13-1.56L439.13-1.56Q439.23-1.42 439.13-1.17L439.13-1.17Q439.08-0.2 438.64 0.63 438.2 1.46 438.1 2.44L438.1 2.44Q437.52 2.59 437.03 2.59L437.03 2.59Q436.2 2.54 435.56 2.12 434.93 1.71 434.39 1.12 433.85 0.54 433.37-0.07 432.88-0.68 432.29-1.12L432.29-1.12Q431.95-2.49 431.63-4.15 431.32-5.81 430.58-6.98L430.58-6.98Q430.78-7.42 430.78-8.06L430.78-8.06Q430.83-9.03 430.61-9.99 430.39-10.94 430.49-11.91L430.49-11.91Q430.49-12.45 430.61-12.99 430.73-13.53 430.78-14.06L430.78-14.06Q430.83-14.89 430.61-15.67 430.39-16.46 430.44-17.29L430.44-17.29Q430.49-17.68 430.61-18.04 430.73-18.41 430.97-18.7L430.97-18.7Q430.73-19.29 430.83-19.82L430.83-19.82Q430.88-20.65 431.02-21.39 431.17-22.12 431.22-22.85L431.22-22.85Q431.22-23.24 431.17-23.61 431.12-23.97 431.02-24.32L431.02-24.32 430.58-24.46Q430.29-24.46 430.02-24.32 429.75-24.17 429.56-23.97 429.36-23.78 429.22-23.66 429.07-23.54 428.92-23.54L428.92-23.54Q428.82-23.54 428.7-23.56 428.58-23.58 428.48-23.58L428.48-23.58Q428.39-23.58 428.12-23.39 427.85-23.19 427.48-22.97 427.12-22.75 426.77-22.53 426.43-22.31 426.24-22.27L426.24-22.27Q425.7-22.36 425.38-22.63 425.07-22.9 424.8-23.17 424.53-23.44 424.24-23.66 423.94-23.88 423.5-23.83L423.5-23.83Q423.36-24.12 423.33-24.46 423.31-24.8 423.36-25.15L423.36-25.15 423.36-25.93Q423.7-26.56 424.26-26.98 424.82-27.39 425.46-27.69L425.46-27.69 426.73-28.27Q427.36-28.56 427.9-29L427.9-29 428.34-29Q429.22-28.96 429.87-29.35 430.53-29.74 431.12-30.25 431.71-30.76 432.32-31.3 432.93-31.84 433.66-32.13L433.66-32.13Q434.2-31.88 434.78-31.71 435.37-31.54 436-31.49L436-31.49Q436.64-31.49 437.32-31.69 438-31.88 438.4-32.42L438.4-32.42Q438.64-32.32 438.81-32.3 438.98-32.28 439.23-32.28L439.23-32.28Q439.96-32.23 440.69-32.5 441.42-32.76 442.11-33.15L442.11-33.15Q443.08-33.11 444.03-33.28 444.99-33.45 445.94-33.64 446.89-33.84 447.84-34.01 448.8-34.18 449.77-34.13L449.77-34.13Q451.38-34.08 452.95-34.42 454.51-34.77 456.12-34.67L456.12-34.67Q457.24-34.62 458.34-34.5 459.44-34.38 460.56-34.42L460.56-34.42Q461.2-34.13 461.71-33.91 462.22-33.69 463-33.79L463-33.79Q464.57-32.47 465.84-30.71L465.84-30.71 465.84-29.88Q465.79-28.76 465.45-27.69 465.1-26.61 464.64-25.56 464.18-24.51 463.64-23.51 463.1-22.51 462.61-21.53L462.61-21.53Q459.44-18.65 456.27-15.82 453.09-12.99 449.72-10.35L449.72-10.35Q449.63-9.86 449.45-9.47 449.28-9.08 449.24-8.64L449.24-8.64Q449.24-8.4 449.28-8.25L449.28-8.25Q449.63-8.15 449.89-7.89 450.16-7.62 450.07-7.18L450.07-7.18 450.5-7.18Q450.75-7.18 450.75-6.98L450.75-6.98 451.53-6.93Q453.39-6.84 455.24-7.03 457.1-7.23 458.98-7.47 460.86-7.71 462.71-7.93 464.57-8.15 466.42-8.2L466.42-8.2Q466.86-8.35 467.35-8.45 467.84-8.54 468.23-8.84L468.23-8.84 468.38-8.84Q468.72-8.84 468.89-8.64 469.06-8.45 469.4-8.4L469.4-8.4Q469.65-8.4 469.91-8.5 470.18-8.59 470.48-8.64L470.48-8.64Q471.16-8.84 471.92-8.89 472.67-8.94 473.41-9.03L473.41-9.03Q476.24-9.28 479.02-9.35 481.8-9.42 484.59-10.06L484.59-10.06Q484.83-9.72 485.27-9.59 485.71-9.47 486.2-9.35 486.69-9.23 487.1-9.08 487.52-8.94 487.66-8.5Z" opacity="1" transform="matrix(1,0,0,1,0,0)" fill="#ffffff" class="undefined-text-1" data-fill-palette-color="quaternary" id="text-1"></path></svg></g></svg></g></svg></g></svg></g><g></g></svg></g></svg></g></svg></g></svg></g><defs></defs></svg><rect width="333.90454557049503" height="333.90454557049503" fill="none" stroke="none" visibility="hidden"></rect></g></svg></g></svg>